<svg width="20" height="25" viewBox="0 0 20 25" fill="none" xmlns="http://www.w3.org/2000/svg">
<g clip-path="url(#clip0_239_2792)">
<path d="M16.9569 5.85131C16.9513 5.84 16.9421 5.83114 16.9309 5.82631C15.6342 5.20162 14.2658 4.75616 12.8599 4.50109C12.8472 4.4986 12.834 4.5004 12.8222 4.50623C12.8105 4.51207 12.8008 4.52164 12.7945 4.53359C12.6082 4.8887 12.439 5.25345 12.2877 5.62645C10.7723 5.38491 9.23083 5.38491 7.7154 5.62645C7.56307 5.2525 7.39121 4.88766 7.2006 4.53359C7.19406 4.5219 7.18432 4.51255 7.17265 4.50675C7.16098 4.50095 7.14791 4.49898 7.13516 4.50109C5.72916 4.75563 4.36067 5.20112 3.06412 5.82635C3.05302 5.83129 3.04366 5.83972 3.03732 5.85049C0.444487 9.91615 -0.265788 13.8818 0.0826486 17.7984C0.0836288 17.808 0.0864375 17.8173 0.0909076 17.8257C0.0953777 17.8342 0.101418 17.8416 0.108669 17.8475C1.61845 19.0213 3.30716 19.9172 5.10273 20.4971C5.11538 20.5011 5.12888 20.5009 5.14143 20.4966C5.15397 20.4923 5.16496 20.4841 5.1729 20.473C5.55855 19.922 5.90027 19.3386 6.19457 18.7286C6.19862 18.7203 6.20093 18.7111 6.20135 18.7017C6.20177 18.6923 6.2003 18.683 6.19702 18.6742C6.19375 18.6655 6.18875 18.6576 6.18235 18.6511C6.17595 18.6445 6.16831 18.6394 6.15991 18.6362C5.62106 18.4197 5.09938 18.1587 4.59977 17.8557C4.5907 17.8501 4.58308 17.8423 4.57758 17.8328C4.57208 17.8234 4.56888 17.8127 4.56826 17.8017C4.56764 17.7906 4.56962 17.7796 4.57401 17.7696C4.57841 17.7595 4.5851 17.7508 4.59348 17.7441C4.69831 17.6616 4.80321 17.5758 4.90331 17.4892C4.91221 17.4815 4.92297 17.4766 4.93438 17.475C4.9458 17.4734 4.95742 17.4751 4.96794 17.4801C8.24104 19.0485 11.7846 19.0485 15.019 17.4801C15.0295 17.4748 15.0413 17.4728 15.0529 17.4743C15.0644 17.4757 15.0754 17.4806 15.0844 17.4884C15.1846 17.575 15.2894 17.6616 15.395 17.7441C15.4035 17.7507 15.4102 17.7594 15.4147 17.7694C15.4192 17.7794 15.4212 17.7904 15.4207 17.8015C15.4201 17.8125 15.417 17.8232 15.4116 17.8327C15.4061 17.8422 15.3986 17.8501 15.3895 17.8557C14.8911 18.1613 14.3689 18.4221 13.8286 18.6354C13.8203 18.6387 13.8126 18.6439 13.8063 18.6506C13.7999 18.6572 13.795 18.6652 13.7918 18.674C13.7886 18.6828 13.7872 18.6922 13.7877 18.7017C13.7881 18.7111 13.7905 18.7203 13.7946 18.7286C14.0939 19.3352 14.4351 19.9179 14.8155 20.472C14.8232 20.4834 14.8342 20.4919 14.8468 20.4964C14.8594 20.5009 14.873 20.5011 14.8857 20.497C16.6845 19.9191 18.3761 19.0231 19.8878 17.8475C19.8952 17.8419 19.9013 17.8347 19.9058 17.8263C19.9103 17.818 19.913 17.8088 19.9138 17.7992C20.331 13.2713 19.2155 9.33807 16.9569 5.85131ZM6.68339 15.4136C5.69794 15.4136 4.88597 14.4641 4.88597 13.2979C4.88597 12.1318 5.68219 11.1822 6.68339 11.1822C7.6924 11.1822 8.49652 12.14 8.48077 13.2979C8.48077 14.4641 7.68451 15.4136 6.68339 15.4136ZM13.329 15.4136C12.3436 15.4136 11.5316 14.4641 11.5316 13.2979C11.5316 12.1318 12.3278 11.1822 13.329 11.1822C14.3381 11.1822 15.1422 12.14 15.1264 13.2979C15.1264 14.4641 14.3381 15.4136 13.329 15.4136Z" fill="white" fill-opacity="0.5"/>
</g>
<defs>
<clipPath id="clip0_239_2792">
<rect width="20" height="24" fill="white" transform="translate(0 0.5)"/>
</clipPath>
</defs>
</svg>
