<svg width="48" height="48" viewBox="0 0 48 48" fill="none" xmlns="http://www.w3.org/2000/svg">
<rect width="48" height="48" rx="24" fill="black"/>
<path d="M33.5634 15.6621C31.8744 14.8873 30.0458 14.325 28.141 14.0001C28.1243 13.9995 28.1077 14.0026 28.0923 14.0091C28.077 14.0156 28.0632 14.0253 28.0521 14.0375C27.8235 14.4499 27.5569 14.9873 27.3791 15.3997C25.3587 15.0998 23.304 15.0998 21.2837 15.3997C21.1059 14.9748 20.8392 14.4499 20.5979 14.0375C20.5852 14.0126 20.5471 14.0001 20.509 14.0001C18.6042 14.325 16.7883 14.8873 15.0867 15.6621C15.074 15.6621 15.0613 15.6746 15.0486 15.6871C11.5945 20.7733 10.6421 25.722 11.112 30.6207C11.112 30.6457 11.1247 30.6707 11.1501 30.6832C13.4358 32.3328 15.6327 33.3325 17.8042 33.9948C17.8423 34.0073 17.8804 33.9948 17.8931 33.9698C18.401 33.2825 18.8582 32.5577 19.2519 31.7954C19.2773 31.7454 19.2519 31.6954 19.2011 31.6829C18.4772 31.408 17.7915 31.0831 17.1185 30.7082C17.0677 30.6832 17.0677 30.6082 17.1058 30.5707C17.2455 30.4707 17.3851 30.3583 17.5248 30.2583C17.5502 30.2333 17.5883 30.2333 17.6137 30.2458C21.9821 32.2078 26.6933 32.2078 31.0109 30.2458C31.0363 30.2333 31.0744 30.2333 31.0998 30.2583C31.2395 30.3708 31.3792 30.4707 31.5189 30.5832C31.5697 30.6207 31.5697 30.6957 31.5062 30.7207C30.8458 31.1081 30.1474 31.4205 29.4236 31.6954C29.3728 31.7079 29.3601 31.7704 29.3728 31.8079C29.7791 32.5702 30.2363 33.295 30.7315 33.9823C30.7696 33.9948 30.8077 34.0073 30.8458 33.9948C33.03 33.3325 35.2269 32.3328 37.5127 30.6832C37.5381 30.6707 37.5508 30.6457 37.5508 30.6207C38.1095 24.9597 36.6238 20.0485 33.6142 15.6871C33.6015 15.6746 33.5888 15.6621 33.5634 15.6621ZM19.9122 27.634C18.6042 27.634 17.5121 26.4468 17.5121 24.9847C17.5121 23.5226 18.5788 22.3354 19.9122 22.3354C21.2583 22.3354 22.325 23.5351 22.3123 24.9847C22.3123 26.4468 21.2456 27.634 19.9122 27.634ZM28.7632 27.634C27.4553 27.634 26.3632 26.4468 26.3632 24.9847C26.3632 23.5226 27.4299 22.3354 28.7632 22.3354C30.1093 22.3354 31.176 23.5351 31.1633 24.9847C31.1633 26.4468 30.1093 27.634 28.7632 27.634Z" fill="#FCFCFD"/>
</svg>
