<svg width="48" height="48" viewBox="0 0 48 48" fill="none" xmlns="http://www.w3.org/2000/svg">
<rect width="48" height="48" rx="24" fill="black"/>
<path d="M24 14C18.48 14 14 18.48 14 24C14 29.52 18.48 34 24 34C29.52 34 34 29.52 34 24C34 18.48 29.52 14 24 14ZM28.64 20.8C28.49 22.38 27.84 26.22 27.51 27.99C27.37 28.74 27.09 28.99 26.83 29.02C26.25 29.07 25.81 28.64 25.25 28.27C24.37 27.69 23.87 27.33 23.02 26.77C22.03 26.12 22.67 25.76 23.24 25.18C23.39 25.03 25.95 22.7 26 22.49C26.0069 22.4582 26.006 22.4252 25.9973 22.3938C25.9886 22.3624 25.9724 22.3337 25.95 22.31C25.89 22.26 25.81 22.28 25.74 22.29C25.65 22.31 24.25 23.24 21.52 25.08C21.12 25.35 20.76 25.49 20.44 25.48C20.08 25.47 19.4 25.28 18.89 25.11C18.26 24.91 17.77 24.8 17.81 24.45C17.83 24.27 18.08 24.09 18.55 23.9C21.47 22.63 23.41 21.79 24.38 21.39C27.16 20.23 27.73 20.03 28.11 20.03C28.19 20.03 28.38 20.05 28.5 20.15C28.6 20.23 28.63 20.34 28.64 20.42C28.63 20.48 28.65 20.66 28.64 20.8Z" fill="#FCFCFD"/>
</svg>
